<?xml version="1.0" encoding="iso-8859-1"?>
<!-- Generator: Adobe Illustrator 19.0.0, SVG Export Plug-In . SVG Version: 6.00 Build 0)  -->
<svg version="1.1" id="Layer_1" xmlns="http://www.w3.org/2000/svg" xmlns:xlink="http://www.w3.org/1999/xlink" x="0px" y="0px"
	 viewBox="0 0 512 512" style="enable-background:new 0 0 512 512;" xml:space="preserve">
<g>
	<g>
		
			<rect x="240.686" y="154.055" transform="matrix(0.9791 -0.2032 0.2032 0.9791 -27.6936 53.8943)" width="15.835" height="15.505"/>
	</g>
</g>
<g>
	<g>
		<path d="M503.086,76.326l-70.972,49.865v26.606l-106.654,74.681l26.552-95.034l-79.659,16.534l3.152,15.183l54.721-11.357
			l-24.781,88.689l-157.94,110.585c-8.58-7.89-20.018-12.719-32.565-12.719c-4.508,0-8.867,0.636-13.008,1.8L24.815,216.19
			l199.007-41.303l-3.152-15.183L0,205.504l87.79,142.264c-12.674,8.684-21.009,23.259-21.009,39.748
			c0,26.553,21.603,48.157,48.159,48.157c26.553,0,48.157-21.603,48.157-48.157c0-8.42-2.178-16.339-5.992-23.233l76.798-53.771
			l48.74,60.04h37.276V250.286l127.701-89.417v-26.623L512,89.012L503.086,76.326z M114.94,420.169
			c-18.005,0-32.653-14.647-32.653-32.652c0-18.005,14.648-32.652,32.653-32.652s32.652,14.647,32.652,32.652
			C147.592,405.521,132.945,420.169,114.94,420.169z M304.414,355.045h-14.388v0.001l-43.389-53.45l57.777-40.454V355.045z"/>
	</g>
</g>
<g>
</g>
<g>
</g>
<g>
</g>
<g>
</g>
<g>
</g>
<g>
</g>
<g>
</g>
<g>
</g>
<g>
</g>
<g>
</g>
<g>
</g>
<g>
</g>
<g>
</g>
<g>
</g>
<g>
</g>
</svg>
